<svg width="60" height="30" viewBox="0 0 60 30" fill="none" xmlns="http://www.w3.org/2000/svg">
<path d="M42.758 0.608364C42.557 0.799559 42.3974 1.02703 42.2886 1.27766C42.1797 1.52828 42.1237 1.7971 42.1237 2.06861C42.1237 2.34012 42.1797 2.60894 42.2886 2.85956C42.3974 3.11019 42.557 3.33766 42.758 3.52885L52.6219 12.9896H2.14433C1.57562 12.9896 1.0302 13.2063 0.62806 13.592C0.22592 13.9777 0 14.5008 0 15.0463C0 15.5917 0.22592 16.1149 0.62806 16.5006C1.0302 16.8863 1.57562 17.103 2.14433 17.103H52.579L42.758 26.502C42.3586 26.8874 42.1344 27.4086 42.1344 27.952C42.1344 28.4953 42.3586 29.0166 42.758 29.4019C43.1597 29.785 43.7032 30 44.2697 30C44.8362 30 45.3797 29.785 45.7815 29.4019L59.4194 16.3214C59.603 16.1525 59.749 15.9497 59.8488 15.7253C59.9486 15.5009 60 15.2594 60 15.0154C60 14.7714 59.9486 14.53 59.8488 14.3056C59.749 14.0811 59.603 13.8784 59.4194 13.7094L45.8029 0.608364C45.6036 0.415594 45.3664 0.262589 45.1051 0.158174C44.8438 0.0537586 44.5635 0 44.2804 0C43.9974 0 43.7171 0.0537586 43.4558 0.158174C43.1945 0.262589 42.9573 0.415594 42.758 0.608364Z" fill="black" fill-opacity="0.5"/>
</svg>
