<svg width="48" height="48" viewBox="0 0 48 48" fill="none" xmlns="http://www.w3.org/2000/svg">
<path d="M23.9998 44.8009C24.4415 44.8009 24.7996 44.4428 24.7996 44.0011C24.7996 43.5594 24.4415 43.2013 23.9998 43.2013C23.5581 43.2013 23.2 43.5594 23.2 44.0011C23.2 44.4428 23.5581 44.8009 23.9998 44.8009Z" fill="black" fill-opacity="0.5"/>
<path d="M32.504 34.7076C36.1562 32.8046 39.0643 29.7318 40.7626 25.9808C42.461 22.2298 42.8515 18.0177 41.8716 14.0185C40.8918 10.0194 38.5982 6.46452 35.358 3.92293C32.1179 1.38135 28.1185 0 24 0C19.8815 0 15.8821 1.38135 12.642 3.92293C9.40179 6.46452 7.10822 10.0194 6.12836 14.0185C5.14849 18.0177 5.539 22.2298 7.23738 25.9808C8.93575 29.7318 11.8438 32.8046 15.496 34.7076C5.208 35.4754 0 37.6588 0 41.2018C0 46.8003 13.048 48 24 48C34.952 48 48 46.8243 48 41.2018C48 37.6588 42.792 35.4754 32.504 34.7076ZM7.2 18.408C7.19943 15.3917 8.01138 12.4309 9.55055 9.8366C11.0897 7.24232 13.2993 5.11031 15.9472 3.6645C18.5952 2.2187 21.5837 1.51247 24.5989 1.61999C27.6141 1.72751 30.5447 2.64482 33.0828 4.27556C35.621 5.9063 37.673 8.19029 39.0234 10.8876C40.3737 13.5849 40.9726 16.596 40.7571 19.6046C40.5415 22.6132 39.5196 25.5083 37.7985 27.9857C36.0774 30.4631 33.7207 32.4314 30.976 33.6839C30.8877 33.7229 30.8087 33.7802 30.744 33.8518L24.528 40.0821C24.3849 40.1998 24.2053 40.2641 24.02 40.2641C23.8347 40.2641 23.6551 40.1998 23.512 40.0821L21.28 37.8827L17.28 33.8838C17.2153 33.8122 17.1363 33.7549 17.048 33.7158C14.1123 32.3753 11.6236 30.22 9.87775 27.5062C8.13192 24.7925 7.20249 21.6345 7.2 18.408ZM24 46.4004C10.184 46.4004 1.6 44.409 1.6 41.2018C1.6 38.5785 7.336 36.763 17.336 36.1872L18.888 37.7868C13.864 38.0267 7.2 38.8505 7.2 41.2018C7.2 43.8651 15.696 44.5609 20.8 44.7449C21.0122 44.7449 21.2157 44.6606 21.3657 44.5106C21.5157 44.3606 21.6 44.1572 21.6 43.9451C21.6 43.733 21.5157 43.5295 21.3657 43.3796C21.2157 43.2296 21.0122 43.1453 20.8 43.1453C13.136 42.8734 9.6 41.7697 8.872 41.2018C9.576 40.642 13.024 39.6023 20.4 39.2743L22.4 41.2818C22.8306 41.6615 23.3859 41.8693 23.96 41.8657C24.5499 41.8585 25.1176 41.64 25.56 41.2498L27.528 39.2743C34.96 39.5703 38.4 40.642 39.112 41.2018C38.4 41.7697 34.848 42.8734 27.184 43.1453C26.9718 43.1453 26.7683 43.2296 26.6183 43.3796C26.4683 43.5295 26.384 43.733 26.384 43.9451C26.384 44.1572 26.4683 44.3606 26.6183 44.5106C26.7683 44.6606 26.9718 44.7449 27.184 44.7449C32.248 44.5609 40.784 43.8651 40.784 41.2018C40.784 38.8505 34.12 38.0027 29.096 37.7468L30.648 36.1472C40.664 36.803 46.4 38.5785 46.4 41.2018C46.4 44.409 37.816 46.4004 24 46.4004Z" fill="black" fill-opacity="0.5"/>
<path d="M39.2 18.408C39.2 15.4025 38.3085 12.4645 36.6383 9.96556C34.9681 7.4666 32.5942 5.51891 29.8168 4.36876C27.0393 3.21862 23.9831 2.91769 21.0346 3.50403C18.0861 4.09037 15.3777 5.53764 13.252 7.66282C11.1262 9.78801 9.67855 12.4957 9.09206 15.4434C8.50556 18.3911 8.80657 21.4465 9.95703 24.2232C11.1075 26.9999 13.0557 29.3731 15.5553 31.0429C18.055 32.7126 20.9937 33.6039 24 33.6039C25.9961 33.6039 27.9726 33.2108 29.8168 32.4471C31.6609 31.6835 33.3366 30.5642 34.748 29.1531C36.1595 27.742 37.2791 26.0668 38.043 24.2232C38.8068 22.3795 39.2 20.4035 39.2 18.408ZM10.4 18.408C10.4 15.7189 11.1976 13.0901 12.692 10.8542C14.1864 8.61833 16.3104 6.87565 18.7955 5.84657C21.2806 4.8175 24.0151 4.54824 26.6532 5.07286C29.2914 5.59748 31.7147 6.89241 33.6166 8.79389C35.5186 10.6954 36.8139 13.118 37.3387 15.7554C37.8634 18.3929 37.5941 21.1266 36.5648 23.611C35.5354 26.0955 33.7923 28.2189 31.5558 29.7129C29.3192 31.2069 26.6898 32.0043 24 32.0043C20.3931 32.0043 16.9338 30.5718 14.3833 28.022C11.8328 25.4722 10.4 22.0139 10.4 18.408Z" fill="black" fill-opacity="0.5"/>
<path d="M25.6 26.4058V26.6217C25.6021 27.2002 25.8329 27.7543 26.242 28.1633C26.6512 28.5723 27.2055 28.803 27.784 28.8051H28.216C28.7946 28.803 29.3489 28.5723 29.758 28.1633C30.1672 27.7543 30.3979 27.2002 30.4 26.6217V26.2458C30.8643 26.0818 31.2669 25.7789 31.5531 25.3783C31.8393 24.9777 31.9954 24.4987 32 24.0064V18.4079H32.8C33.2244 18.4079 33.6314 18.2394 33.9314 17.9394C34.2315 17.6395 34.4 17.2326 34.4 16.8084V14.409C34.4 13.9848 34.2315 13.5779 33.9314 13.278C33.6314 12.978 33.2244 12.8095 32.8 12.8095H32V10.4501C31.9981 9.81063 31.7458 9.19733 31.2973 8.74144C30.8488 8.28555 30.2396 8.02328 29.6 8.01074H18.44C17.7936 8.01285 17.1742 8.27053 16.717 8.72754C16.2599 9.18455 16.0021 9.80378 16 10.4501V12.8095H15.2C14.7757 12.8095 14.3687 12.978 14.0687 13.278C13.7686 13.5779 13.6 13.9848 13.6 14.409V16.8084C13.6 17.2326 13.7686 17.6395 14.0687 17.9394C14.3687 18.2394 14.7757 18.4079 15.2 18.4079H16V24.0064C15.9965 24.5056 16.1487 24.9934 16.4354 25.4019C16.7222 25.8105 17.1293 26.1195 17.6 26.2858V26.6617C17.6126 27.2332 17.8479 27.7771 18.2559 28.1776C18.6639 28.578 19.2123 28.8032 19.784 28.8051H20.216C20.7946 28.803 21.3489 28.5723 21.758 28.1633C22.1672 27.7543 22.3979 27.2002 22.4 26.6217V26.4058H25.6ZM28.8 26.6217C28.8 26.7766 28.7385 26.9251 28.629 27.0346C28.5195 27.1441 28.3709 27.2056 28.216 27.2056H27.784C27.6292 27.2056 27.4806 27.1441 27.3711 27.0346C27.2616 26.9251 27.2 26.7766 27.2 26.6217V26.4058H28.8V26.6217ZM29.6 24.8062H18.44C18.3317 24.8116 18.2233 24.795 18.1216 24.7572C18.0199 24.7195 17.9269 24.6614 17.8483 24.5866C17.7697 24.5118 17.7072 24.4218 17.6645 24.322C17.6218 24.2223 17.5999 24.1149 17.6 24.0064V19.2077H30.4V24.0064C30.4 24.2186 30.3158 24.422 30.1657 24.572C30.0157 24.722 29.8122 24.8062 29.6 24.8062ZM30.4 17.6082H17.6V13.6092H30.4V17.6082ZM32.8 14.409V16.8084H32V14.409H32.8ZM18.44 9.61031H29.6C29.7085 9.61018 29.816 9.63211 29.9157 9.67478C30.0155 9.71745 30.1055 9.77996 30.1803 9.85852C30.2552 9.93707 30.3133 10.03 30.351 10.1317C30.3888 10.2334 30.4055 10.3417 30.4 10.4501V12.0097H17.6V10.4501C17.5943 10.3383 17.6121 10.2265 17.6523 10.122C17.6924 10.0176 17.7541 9.92267 17.8333 9.84351C17.9125 9.76435 18.0074 9.7027 18.1119 9.66253C18.2164 9.62236 18.3282 9.60457 18.44 9.61031ZM15.2 16.8084V14.409H16V16.8084H15.2ZM20.8 26.6217C20.8 26.7766 20.7385 26.9251 20.629 27.0346C20.5195 27.1441 20.3709 27.2056 20.216 27.2056H19.784C19.6292 27.2056 19.4806 27.1441 19.3711 27.0346C19.2616 26.9251 19.2 26.7766 19.2 26.6217V26.4058H20.8V26.6217Z" fill="black" fill-opacity="0.5"/>
<path d="M19.9997 23.2066C20.4414 23.2066 20.7995 22.8485 20.7995 22.4068C20.7995 21.9651 20.4414 21.6071 19.9997 21.6071C19.558 21.6071 19.2 21.9651 19.2 22.4068C19.2 22.8485 19.558 23.2066 19.9997 23.2066Z" fill="black" fill-opacity="0.5"/>
<path d="M27.9998 23.2066C28.4415 23.2066 28.7996 22.8485 28.7996 22.4068C28.7996 21.9651 28.4415 21.6071 27.9998 21.6071C27.5581 21.6071 27.2 21.9651 27.2 22.4068C27.2 22.8485 27.5581 23.2066 27.9998 23.2066Z" fill="black" fill-opacity="0.5"/>
</svg>
