<svg width="64" height="64" viewBox="0 0 64 64" fill="none" class='current' xmlns="http://www.w3.org/2000/svg">
<path d="M32 3.2C47.88 3.2 60.8 16.12 60.8 32C60.8 47.88 47.88 60.8 32 60.8C16.12 60.8 3.2 47.88 3.2 32C3.2 16.12 16.12 3.2 32 3.2ZM32 0C14.328 0 0 14.3264 0 32C0 49.6752 14.328 64 32 64C49.6752 64 64 49.6752 64 32C64 14.3264 49.6752 0 32 0Z" fill="black"/>
<path fill-rule="evenodd" clip-rule="evenodd" d="M22.9936 15.6687C24.9248 15.3039 26.1904 17.4815 27.1536 18.9839C28.0912 20.4431 29.2448 22.1551 28.7792 24.0543C28.52 25.1199 27.5568 25.7007 26.8288 26.3295C26.1104 26.9503 25.016 27.5199 24.7504 28.4735C24.3168 30.0207 25.2656 31.6447 25.8528 32.5695C27.1872 34.6591 28.8 36.5423 30.8592 38.2239C31.856 39.0399 33.24 40.1295 34.6272 39.8495C36.6992 39.4303 37.2464 36.8751 39.5024 36.5343C41.6496 36.2095 43.1024 37.7663 44.3152 38.8095C45.4832 39.8191 47.368 41.1119 47.24 42.8415C47.1648 43.8351 46.368 44.4511 45.6768 45.0511C44.9744 45.6639 44.3584 46.3519 43.664 46.8047C41.9824 47.9023 39.92 48.4399 37.552 48.3663C35.2304 48.2943 33.3808 47.5055 31.7024 46.6111C28.4208 44.8607 25.8272 42.3983 23.384 39.6543C20.9808 36.9567 18.7616 33.7631 17.5344 30.2319C16.0032 25.8223 16.8128 21.2927 19.2912 18.4671C19.7104 17.9871 20.3728 17.4863 20.9792 16.9711C21.584 16.4543 22.144 15.8287 22.9936 15.6687Z" fill="black"/>
</svg>
