<svg width="302" height="57" viewBox="0 0 302 57" fill="none" xmlns="http://www.w3.org/2000/svg" class='current'>
<path d="M17.4048 38.6885C16.897 38.6885 16.5063 38.4492 16.2329 37.9707C15.9595 37.4824 15.8228 36.54 15.8228 35.1436C15.8228 32.7412 16.3892 27.5752 17.522 19.6455C17.5903 19.3037 17.4683 19.0986 17.1558 19.0303C16.8433 18.9521 15.564 18.9131 13.3179 18.9131C10.2515 18.9131 8.49365 19.0938 8.04443 19.4551C7.59521 19.8164 7.24365 21.4473 6.98975 24.3477C6.89209 25.5 6.60889 27.3701 6.14014 29.958C5.57373 33.0635 5.29053 35.2754 5.29053 36.5938L5.34912 37.5166C5.34912 38.3955 4.9292 38.835 4.08936 38.835C3.0835 38.835 2.58057 38.2051 2.58057 36.9453C2.58057 35.9395 2.66357 35.0508 2.82959 34.2793C3.10303 32.9707 3.33252 31.7109 3.51807 30.5C3.63525 29.7383 3.77197 28.9131 3.92822 28.0244C4.55322 24.4893 4.86572 21.9697 4.86572 20.4658C4.86572 19.958 4.63135 19.6797 4.1626 19.6309C3.23486 19.5234 2.771 19.1426 2.771 18.4883C2.771 18.0488 2.8833 17.6924 3.10791 17.4189C3.34229 17.1455 3.64502 16.999 4.01611 16.9795C4.95361 16.9404 5.63721 16.7891 6.06689 16.5254C6.45752 16.3301 6.75049 16.2324 6.9458 16.2324C7.34619 16.2324 7.69287 16.3203 7.98584 16.4961C8.30811 16.6914 9.24561 16.7891 10.7983 16.7891C10.8179 16.7891 11.853 16.7598 13.9038 16.7012C15.9644 16.6426 17.0923 16.5938 17.2876 16.5547C17.4829 16.5156 17.7222 16.4375 18.0054 16.3203C18.4644 16.125 18.8403 16.0273 19.1333 16.0273L20.3052 16.2031L21.6089 16.1152C22.3999 16.1152 22.7954 16.4619 22.7954 17.1553C22.7954 17.6045 22.6489 17.9854 22.356 18.2979C22.063 18.6006 21.731 18.7617 21.3599 18.7812C21.0962 18.8008 20.8667 18.8984 20.6714 19.0742C20.4761 19.2402 20.2173 19.9824 19.895 21.3008C19.5728 22.6191 19.2554 24.9287 18.9429 28.2295C18.6401 31.5303 18.4888 34.499 18.4888 37.1357V37.6631C18.4888 37.8682 18.3618 38.0781 18.1079 38.293C17.854 38.5176 17.6196 38.6494 17.4048 38.6885Z" fill="black"/>
<path d="M28.9291 38.7324C27.5912 38.7324 26.4877 38.2246 25.6185 37.209C24.7494 36.1934 24.3148 34.9385 24.3148 33.4443C24.3148 30.9248 25.1595 28.4443 26.849 26.0029C28.5482 23.5518 30.5795 22.3262 32.9427 22.3262C34.5052 22.3262 35.7699 22.9268 36.7367 24.1279C37.7133 25.3291 38.2015 26.7598 38.2015 28.4199C38.2015 30.959 37.1957 33.3125 35.184 35.4805C33.182 37.6484 31.097 38.7324 28.9291 38.7324ZM26.8929 33.0635C26.8929 34.0498 27.098 34.8555 27.5082 35.4805C27.9281 36.1055 28.4799 36.418 29.1635 36.418C30.6185 36.418 32.0785 35.6221 33.5433 34.0303C35.0082 32.4287 35.7406 30.6514 35.7406 28.6982C35.7406 27.4971 35.4574 26.5254 34.891 25.7832C34.3344 25.0312 33.5824 24.6553 32.6351 24.6553C31.0629 24.6553 29.7103 25.6221 28.5775 27.5557C27.4545 29.4795 26.8929 31.3154 26.8929 33.0635Z" fill="black"/>
<path d="M54.7023 33.0342C54.7023 34.0303 53.8185 35.2314 52.0509 36.6377C50.2931 38.0439 48.4767 38.7471 46.6017 38.7471C45.0294 38.7471 43.8136 38.2832 42.9542 37.3555C42.1046 36.4277 41.6798 35.1338 41.6798 33.4736C41.6798 30.6807 42.6222 28.0244 44.507 25.5049C46.3917 22.9854 48.4523 21.7256 50.6886 21.7256C51.421 21.7256 52.0167 21.9648 52.4757 22.4434C52.9445 22.9219 53.1788 23.498 53.1788 24.1719C53.1788 25.6758 52.4415 27.1162 50.9669 28.4932C49.4923 29.8701 47.5197 31.2227 45.049 32.5508C44.5411 32.8145 44.2872 33.1562 44.2872 33.5762C44.2872 34.3867 44.5216 35.0361 44.9904 35.5244C45.4591 36.0127 46.1525 36.2568 47.0704 36.2568C49.17 36.2568 51.3136 35.0947 53.5011 32.7705C53.8234 32.4482 54.0675 32.2871 54.2335 32.2871C54.546 32.2871 54.7023 32.5361 54.7023 33.0342ZM44.5216 30.749C48.6622 28.2881 50.7325 26.3105 50.7325 24.8164C50.7325 24.2305 50.4689 23.9375 49.9415 23.9375C49.0431 23.9375 48.0275 24.5967 46.8947 25.915C45.7716 27.2334 44.9806 28.8447 44.5216 30.749Z" fill="black"/>
<path d="M62.9566 32.5508C60.73 34.4648 59.2603 36.3936 58.5474 38.3369C58.274 38.9814 57.9957 39.4648 57.7125 39.7871C56.5504 39.7188 55.9693 39.1768 55.9693 38.1611C55.9693 36.667 57.6343 34.4014 60.9644 31.3643L61.6675 30.7051C59.7242 27.7852 58.7525 25.5439 58.7525 23.9814C58.7525 22.5947 59.3384 21.9014 60.5103 21.9014C60.8423 21.9014 61.0816 22.043 61.2281 22.3262C61.3843 22.6094 61.5064 23.2539 61.5943 24.2598C61.7213 25.8125 62.3902 27.458 63.6011 29.1963C66.3062 26.8721 68.1324 24.792 69.0797 22.9561C69.4019 22.3701 69.6509 21.999 69.8267 21.8428C70.0025 21.6865 70.2369 21.6084 70.5298 21.6084C70.8814 21.6084 71.2086 21.7451 71.5113 22.0186C71.8238 22.292 71.98 22.6387 71.98 23.0586C71.98 24.0352 69.607 26.7109 64.8609 31.0859C66.4918 33.1758 68.23 34.7432 70.0757 35.7881C70.3004 35.915 70.5152 36.0469 70.7203 36.1836C70.7593 36.2715 70.7789 36.4082 70.7789 36.5938C70.7789 37.0137 70.6226 37.3896 70.3101 37.7217C70.0074 38.0537 69.6412 38.2197 69.2115 38.2197C67.8931 38.2197 65.8082 36.3301 62.9566 32.5508Z" fill="#FF1D25"/>
<path d="M84.114 32.668C82.7468 34.5039 81.3942 35.8809 80.0563 36.7988C78.7184 37.7168 77.4929 38.1758 76.3796 38.1758C75.6276 38.1758 74.9782 37.8584 74.4313 37.2236C73.8845 36.5889 73.611 35.7734 73.611 34.7773C73.611 32.209 74.7585 29.4453 77.0534 26.4863C79.3483 23.5176 81.6286 22.0332 83.8942 22.0332C84.7145 22.0332 85.3249 22.502 85.7253 23.4395C85.8522 23.752 86.0524 23.9082 86.3259 23.9082C87.1071 23.9082 87.4977 24.2109 87.4977 24.8164C87.4977 25.1191 87.4489 25.5342 87.3513 26.0615C86.8239 28.9424 86.5602 30.9736 86.5602 32.1553C86.5602 34.5186 87.0095 35.9346 87.9079 36.4033C88.3376 36.6377 88.5524 36.9258 88.5524 37.2676C88.5524 37.5703 88.3425 37.873 87.9225 38.1758C87.5026 38.4883 87.0974 38.6445 86.7067 38.6445C85.9548 38.6445 85.3347 38.127 84.8464 37.0918C84.3581 36.0566 84.114 34.582 84.114 32.668ZM83.2204 24.4209C81.9313 24.4209 80.4323 25.6318 78.7233 28.0537C77.0143 30.4658 76.1599 32.4678 76.1599 34.0596C76.1599 35.1826 76.5309 35.7441 77.2731 35.7441C78.3474 35.7441 79.8366 34.6602 81.7409 32.4922C83.6452 30.3242 84.5974 28.332 84.5974 26.5156C84.5974 25.1191 84.1384 24.4209 83.2204 24.4209ZM100.066 26.0615C99.8317 26.0518 99.6022 26.2764 99.3776 26.7354C97.3561 30.7783 95.8278 33.5225 94.7927 34.9678C94.7048 35.0947 94.5925 35.2803 94.4557 35.5244C93.235 37.7021 92.3415 38.791 91.7751 38.791C91.0134 38.791 90.6325 38.4248 90.6325 37.6924C90.6325 37.0283 91.1061 36.125 92.0534 34.9824C92.9714 33.8984 94.1774 32.0625 95.6716 29.4746C97.1657 26.877 98.3766 24.5479 99.3044 22.4873C99.4802 22.1162 99.7438 21.9307 100.095 21.9307C100.242 21.9307 100.501 21.999 100.872 22.1357C101.253 22.2627 101.497 22.4043 101.604 22.5605C101.712 22.7168 101.951 23.625 102.322 25.2852C103.523 31.2715 104.788 34.8213 106.116 35.9346C106.428 36.208 106.614 36.3936 106.673 36.4912C106.731 36.5791 106.76 36.7061 106.76 36.8721C106.76 37.1748 106.663 37.4531 106.467 37.707C106.272 37.9512 106.082 38.1074 105.896 38.1758C105.711 38.2441 105.33 38.2783 104.754 38.2783C104.549 38.2783 104.07 37.7754 103.318 36.7695C102.566 35.7539 101.687 32.9951 100.681 28.4932C100.437 27.2822 100.232 26.4717 100.066 26.0615ZM120.12 31.6279C118.87 33.7275 117.591 35.3535 116.282 36.5059C114.973 37.6582 113.758 38.2344 112.634 38.2344C111.99 38.2344 111.331 37.8584 110.657 37.1064C109.993 36.3545 109.661 35.1973 109.661 33.6348C109.661 32.3555 109.968 30.4707 110.584 27.9805C111.101 25.9004 111.36 24.4404 111.36 23.6006C111.643 23.0146 112.088 22.7217 112.693 22.7217C113.103 22.7217 113.43 22.8682 113.674 23.1611C113.919 23.4443 114.041 23.7422 114.041 24.0547C114.041 24.7383 113.801 25.71 113.323 26.9697C112.415 29.4209 111.961 31.5254 111.961 33.2832C111.961 34.8848 112.332 35.6855 113.074 35.6855C114.021 35.6855 115.227 34.8799 116.692 33.2686C118.157 31.6572 119.412 29.4111 120.457 26.5303C120.867 25.3779 121.199 24.6309 121.453 24.2891C121.716 23.9375 122.068 23.7617 122.508 23.7617C123.172 23.7617 123.504 24.2012 123.504 25.0801C123.504 25.1875 123.411 25.5439 123.225 26.1494C122.639 28.2881 122.346 30.3096 122.346 32.2139C122.346 34.499 122.722 35.9785 123.474 36.6523C123.865 37.0137 124.06 37.3066 124.06 37.5312C124.06 37.8047 123.86 38.0537 123.46 38.2783C123.069 38.5029 122.713 38.6152 122.39 38.6152C121.707 38.6152 121.155 38.1074 120.735 37.0918C120.315 36.0762 120.105 34.5771 120.105 32.5947V32.1113C120.105 31.9551 120.11 31.7939 120.12 31.6279ZM144.099 38.835C142.634 38.835 141.507 38.415 140.716 37.5752C139.934 36.7354 139.544 35.5586 139.544 34.0449C139.544 31.4961 140.554 28.8105 142.576 25.9883C144.597 23.1562 146.477 21.7402 148.216 21.7402C149.007 21.7402 149.685 22.1699 150.252 23.0293C150.828 23.8789 151.116 24.7822 151.116 25.7393C151.116 26.3154 150.989 26.8135 150.735 27.2334C150.491 27.6436 150.242 27.8486 149.988 27.8486C149.422 27.8486 149.021 27.2773 148.787 26.1348C148.523 24.9043 148.142 24.2891 147.644 24.2891C146.629 24.2891 145.427 25.4951 144.041 27.9072C142.654 30.3193 141.961 32.3555 141.961 34.0156C141.961 35.6758 142.903 36.5059 144.788 36.5059C146.223 36.5059 147.913 35.832 149.856 34.4844C150.54 34.0059 151.043 33.7666 151.365 33.7666C151.697 33.7666 151.863 33.957 151.863 34.3379C151.863 35.0801 150.989 36.0176 149.241 37.1504C147.493 38.2734 145.779 38.835 144.099 38.835Z" fill="black"/>
<path d="M172.173 28.2734C171.733 30.5488 171.514 32.292 171.514 33.5029C171.514 34.04 171.543 34.6162 171.602 35.2314C171.65 35.8564 171.675 36.457 171.675 37.0332C171.675 38.1953 171.284 38.7764 170.503 38.7764C169.263 38.7764 168.643 37.6289 168.643 35.334C168.643 32.1016 169.111 28.1123 170.049 23.3662C170.205 22.6045 170.352 21.833 170.488 21.0518C170.977 18.2783 171.396 16.5938 171.748 15.998C172.1 15.4023 172.632 15.1045 173.345 15.1045C173.696 15.1045 173.994 15.2949 174.238 15.6758C174.482 16.0469 174.604 16.4277 174.604 16.8184C174.604 16.9258 174.155 18.1758 173.257 20.5684C172.798 21.9453 172.568 23.4053 172.568 24.9482C172.666 25.1143 172.817 25.1973 173.022 25.1973L176.26 24.9775C176.787 24.9775 177.427 24.9189 178.179 24.8018C178.94 24.6748 179.429 24.5674 179.644 24.4795C179.868 24.3818 180.103 24.1719 180.347 23.8496C180.591 23.5273 180.767 23.2051 180.874 22.8828C180.991 22.5898 181.309 21.9941 181.826 21.0957C181.934 20.9004 182.026 20.7246 182.104 20.5684C182.71 19.3379 183.794 18.127 185.356 16.9355C186.929 15.7441 188.267 15.1484 189.37 15.1484C190.532 15.1484 191.392 15.4854 191.948 16.1592C192.075 16.3154 192.461 16.5352 193.105 16.8184C193.877 17.1699 194.404 17.4873 194.688 17.7705C194.971 18.0537 195.254 18.5908 195.537 19.3818C195.83 20.1631 195.977 20.8369 195.977 21.4033C195.977 21.9307 195.776 23.1025 195.376 24.9189C194.976 26.7256 194.292 28.4492 193.325 30.0898C192.358 31.7207 191.094 33.249 189.531 34.6748C187.969 36.1006 186.685 36.9648 185.679 37.2676C184.673 37.5703 183.853 37.7217 183.218 37.7217C181.968 37.7217 180.918 37.1162 180.068 35.9053C179.229 34.6846 178.809 33.542 178.809 32.4775C178.809 30.7588 178.901 29.46 179.087 28.5811C179.185 28.1123 179.233 27.834 179.233 27.7461C179.233 27.4434 178.994 27.292 178.516 27.292C175.615 27.292 173.501 27.6191 172.173 28.2734ZM189.854 17.5947C187.646 17.5947 185.693 19.1523 183.994 22.2676C182.295 25.373 181.445 28.4785 181.445 31.584C181.445 32.1797 181.606 32.917 181.929 33.7959C182.261 34.6748 182.69 35.1143 183.218 35.1143C185.464 35.1143 187.705 33.5811 189.941 30.5146C192.178 27.4385 193.296 24.4355 193.296 21.5059C193.296 20.7148 192.881 19.8652 192.051 18.957C191.23 18.0488 190.498 17.5947 189.854 17.5947Z" fill="black"/>
<path d="M199.249 36.3008C198.77 38.0586 198.321 40.5244 197.901 43.6982L197.491 46.4668C197.423 46.8574 197.242 47.2432 196.949 47.624C196.656 48.0146 196.388 48.21 196.143 48.21C195.841 48.21 195.494 48.0537 195.103 47.7412C194.723 47.4385 194.532 47.1943 194.532 47.0088C194.532 46.4717 194.654 45.7295 194.898 44.7822C196.685 37.5654 197.579 31.2275 197.579 25.7686L197.564 24.5381C197.545 23.4834 197.73 22.7168 198.121 22.2383C198.512 21.7598 198.961 21.5205 199.469 21.5205C199.703 21.5205 199.928 21.7061 200.143 22.0771C200.357 22.4385 200.465 22.9561 200.465 23.6299C200.465 24.5771 200.367 25.7246 200.172 27.0723C199.918 28.7715 199.786 29.748 199.776 30.002C201.231 27.4629 202.774 25.4805 204.405 24.0547C206.036 22.6289 207.55 21.916 208.946 21.916C209.933 21.916 210.763 22.2871 211.436 23.0293C212.12 23.7617 212.462 24.6748 212.462 25.7686C212.462 28.9521 211.241 31.8428 208.8 34.4404C206.358 37.0381 203.98 38.3369 201.666 38.3369C201.09 38.3369 200.631 38.1904 200.289 37.8975C199.957 37.6045 199.61 37.0723 199.249 36.3008ZM208.346 24.5088C206.969 24.5088 205.265 25.7979 203.233 28.376C201.202 30.9541 200.186 32.9609 200.186 34.3965C200.186 34.748 200.387 35.0898 200.787 35.4219C201.187 35.7539 201.695 35.9199 202.31 35.9199C203.707 35.9199 205.313 34.8896 207.13 32.8291C208.946 30.7588 209.854 28.7275 209.854 26.7354C209.854 26.0225 209.708 25.4756 209.415 25.0947C209.132 24.7041 208.775 24.5088 208.346 24.5088ZM226.158 31.6279C224.908 33.7275 223.629 35.3535 222.32 36.5059C221.012 37.6582 219.796 38.2344 218.673 38.2344C218.028 38.2344 217.369 37.8584 216.695 37.1064C216.031 36.3545 215.699 35.1973 215.699 33.6348C215.699 32.3555 216.007 30.4707 216.622 27.9805C217.14 25.9004 217.398 24.4404 217.398 23.6006C217.682 23.0146 218.126 22.7217 218.731 22.7217C219.142 22.7217 219.469 22.8682 219.713 23.1611C219.957 23.4443 220.079 23.7422 220.079 24.0547C220.079 24.7383 219.84 25.71 219.361 26.9697C218.453 29.4209 217.999 31.5254 217.999 33.2832C217.999 34.8848 218.37 35.6855 219.112 35.6855C220.06 35.6855 221.266 34.8799 222.73 33.2686C224.195 31.6572 225.45 29.4111 226.495 26.5303C226.905 25.3779 227.237 24.6309 227.491 24.2891C227.755 23.9375 228.106 23.7617 228.546 23.7617C229.21 23.7617 229.542 24.2012 229.542 25.0801C229.542 25.1875 229.449 25.5439 229.264 26.1494C228.678 28.2881 228.385 30.3096 228.385 32.2139C228.385 34.499 228.761 35.9785 229.513 36.6523C229.903 37.0137 230.099 37.3066 230.099 37.5312C230.099 37.8047 229.898 38.0537 229.498 38.2783C229.107 38.5029 228.751 38.6152 228.429 38.6152C227.745 38.6152 227.193 38.1074 226.773 37.0918C226.353 36.0762 226.143 34.5771 226.143 32.5947V32.1113C226.143 31.9551 226.148 31.7939 226.158 31.6279ZM237.101 30.2949C239.415 29.8945 241.49 28.4004 243.326 25.8125C244.185 24.6113 244.937 23.7617 245.582 23.2637C246.236 22.7559 246.93 22.502 247.662 22.502C247.955 22.502 248.248 22.6338 248.541 22.8975C248.834 23.1611 248.98 23.4736 248.98 23.835C248.98 24.3135 248.526 24.6895 247.618 24.9629C247.14 25.1094 246.69 25.3584 246.27 25.71C245.851 26.0615 245.055 26.9014 243.883 28.2295C242.965 29.2646 242.14 29.9922 241.407 30.4121C241.339 30.4512 241.305 30.4854 241.305 30.5146C241.305 30.5537 241.349 30.5928 241.436 30.6318C242.149 31.0127 242.901 31.75 243.692 32.8438C244.845 34.4355 245.709 35.4414 246.285 35.8613C246.861 36.2715 247.52 36.4766 248.263 36.4766L248.746 36.4619C249.088 36.4424 249.259 36.5938 249.259 36.916C249.259 37.2871 249.049 37.6729 248.629 38.0732C248.209 38.4736 247.516 38.6738 246.549 38.6738C245.807 38.6738 245.084 38.3564 244.381 37.7217C243.687 37.0771 242.892 36.0371 241.993 34.6016C241.476 33.752 240.992 33.1074 240.543 32.668C240.094 32.2285 239.596 32.0088 239.049 32.0088C238.932 32.0088 238.57 32.1064 237.965 32.3018C237.359 32.4971 237.018 32.6875 236.939 32.873C236.871 33.0488 236.817 33.6982 236.778 34.8213C236.749 35.9346 236.734 36.833 236.734 37.5166C236.734 37.8779 236.563 38.2002 236.222 38.4834C235.88 38.7666 235.509 38.9082 235.108 38.9082C234.698 38.9082 234.376 38.7861 234.142 38.542C233.907 38.3076 233.79 38.0635 233.79 37.8096C233.79 37.458 233.922 36.6279 234.185 35.3193C234.654 32.9365 235.123 29.0059 235.592 23.5273C235.631 23 235.831 22.5264 236.192 22.1064C236.554 21.6768 236.964 21.4619 237.423 21.4619C237.677 21.4619 237.887 21.5986 238.053 21.8721C238.228 22.1455 238.316 22.4971 238.316 22.9268C238.316 23.2686 238.258 23.6592 238.141 24.0986C237.584 26.1201 237.237 28.1855 237.101 30.2949ZM294.068 25.168C293.277 26.4375 292.164 28.5859 290.728 31.6133C290.406 32.2969 290.079 32.9561 289.747 33.5908C289.64 33.7959 289.435 34.25 289.132 34.9531C288.106 37.3359 287.213 38.5273 286.451 38.5273C285.846 38.5273 285.401 38.4541 285.118 38.3076C284.845 38.1611 284.581 37.7607 284.327 37.1064C284.073 36.4521 283.697 34.9141 283.199 32.4922C282.623 29.748 282.232 28.0586 282.027 27.4238C281.363 28.918 280.772 30.3584 280.255 31.7451C279.474 33.7861 278.717 35.4512 277.984 36.7402C277.252 38.0195 276.725 38.7861 276.402 39.04C276.08 39.3037 275.772 39.4355 275.479 39.4355C275.177 39.4355 274.903 39.3184 274.659 39.084C274.415 38.8496 274.293 38.6201 274.293 38.3955C274.352 37.9951 274.42 37.7461 274.498 37.6484C275.348 36.6035 276.08 35.4902 276.695 34.3086C277.31 33.127 278.092 31.3545 279.039 28.9912C279.996 26.6279 280.606 24.6895 280.87 23.1758C280.997 22.5312 281.471 22.209 282.291 22.209C282.769 22.209 283.097 22.2822 283.272 22.4287C283.448 22.5752 283.619 22.873 283.785 23.3223C283.961 23.7715 284.063 24.1719 284.093 24.5234C284.151 24.9434 284.317 25.876 284.591 27.3213C284.835 28.6787 284.996 29.6406 285.074 30.207C285.211 31.0176 285.45 32.082 285.792 33.4004C286.143 34.7188 286.417 35.3779 286.612 35.3779C286.749 35.3779 286.944 35.0801 287.198 34.4844L288.429 31.6426C288.653 31.125 288.893 30.6172 289.146 30.1191L290.831 26.6768C291.749 24.7822 292.452 23.4102 292.94 22.5605C293.438 21.7012 293.77 21.1836 293.936 21.0078C294.112 20.832 294.308 20.7441 294.522 20.7441C294.893 20.7441 295.309 20.8467 295.768 21.0518C296.227 21.2471 296.466 21.4668 296.485 21.7109C296.505 21.9551 296.549 22.9756 296.617 24.7725L296.808 29.3428C296.866 30.7979 296.954 32.0381 297.071 33.0635C297.188 34.0791 297.393 34.8994 297.686 35.5244C298.145 36.5205 298.375 37.292 298.375 37.8389C298.375 38.3076 298.18 38.6299 297.789 38.8057C297.408 38.9814 297.052 39.0693 296.72 39.0693C296.036 39.0693 295.509 38.5225 295.138 37.4287C294.776 36.335 294.513 33.2002 294.347 28.0244C294.288 26.4717 294.195 25.5195 294.068 25.168Z" fill="black"/>
<path d="M261.47 39.9783C266.433 39.9783 270.456 35.9568 270.456 30.9961C270.456 26.0353 266.433 22.0139 261.47 22.0139C256.508 22.0139 252.485 26.0353 252.485 30.9961C252.485 35.9568 256.508 39.9783 261.47 39.9783Z" fill="black"/>
<path d="M264.366 34.9881H258.475C258.275 34.9881 258.076 34.7885 258.076 34.5889V30.2974H264.765V34.5889C264.865 34.7885 264.665 34.9881 264.366 34.9881Z" fill="white"/>
<path d="M265.663 30.7964C265.763 30.8962 265.763 31.0958 265.663 31.1956C265.564 31.2954 265.564 31.2954 265.464 31.2954H261.47H257.477C257.277 31.2954 257.177 31.1956 257.177 30.996C257.177 30.8962 257.177 30.7964 257.277 30.7964L261.271 26.8043C261.37 26.7045 261.57 26.7045 261.67 26.8043L265.663 30.7964Z" fill="white"/>
<path d="M262.169 31.8943H260.871C260.572 31.8943 260.272 32.1937 260.272 32.4931V34.9882H262.768V32.4931C262.768 32.1937 262.469 31.8943 262.169 31.8943Z" fill="black"/>
<path d="M64.9846 39.615C64.9846 40.4134 65.1843 41.3116 65.4838 42.0102" stroke="#333333" stroke-width="0.5" stroke-miterlimit="10"/>
<path d="M66.9813 44.5692C69.9764 46.8647 75.168 48.6611 83.155 50.9566C97.1322 54.9487 95.1354 47.9625 113.106 44.9684C131.077 41.9744 130.078 49.9585 143.057 54.9487C156.036 59.9388 163.025 45.9665 159.131 38.1819C155.238 30.3973 154.039 23.0119 166.22 15.0278C178.4 7.04358 185.987 -0.241984 214.94 2.15327C240.399 4.24912 249.983 7.34299 255.075 13.9299" stroke="#333333" stroke-width="0.5" stroke-miterlimit="10" stroke-dasharray="4.93 4.93"/>
<path d="M256.672 16.6605C257.072 17.3591 257.471 18.0577 257.87 18.8561" stroke="#333333" stroke-width="0.5" stroke-miterlimit="10"/>
</svg>
