<svg width="32" height="32" viewBox="0 0 32 32" fill="none" xmlns="http://www.w3.org/2000/svg">
<path d="M16 32C24.8366 32 32 24.8366 32 16C32 7.16344 24.8366 0 16 0C7.16344 0 0 7.16344 0 16C0 24.8366 7.16344 32 16 32Z" fill="url(#paint0_linear_119_161)"/>
<path d="M23.7875 9.20624L20.9313 23.6125C20.9313 23.6125 20.5312 24.6125 19.4312 24.1312L12.8375 19.075L10.4375 17.9187L6.4 16.5625C6.4 16.5625 5.78125 16.3437 5.71875 15.8625C5.65625 15.3812 6.41875 15.125 6.41875 15.125L22.4688 8.83124C22.4688 8.82499 23.7875 8.24374 23.7875 9.20624Z" fill="white"/>
<path d="M12.325 23.45C12.325 23.45 12.1313 23.4312 11.8938 22.675C11.6563 21.9187 10.4375 17.9187 10.4375 17.9187L20.1313 11.7625C20.1313 11.7625 20.6938 11.425 20.6688 11.7625C20.6688 11.7625 20.7688 11.825 20.4688 12.1C20.1688 12.3812 12.8563 18.9562 12.8563 18.9562" fill="#D2E4F0"/>
<path d="M15.3625 21.0125L12.7563 23.3938C12.7563 23.3938 12.55 23.55 12.3313 23.45L12.8313 19.0312" fill="#B5CFE4"/>
<defs>
<linearGradient id="paint0_linear_119_161" x1="16" y1="0" x2="16" y2="31.8833" gradientUnits="userSpaceOnUse">
<stop stop-color="#41BCE7"/>
<stop offset="1" stop-color="#22A6DC"/>
</linearGradient>
</defs>
</svg>
