<svg width="32" height="32" viewBox="0 0 32 32" fill="none" xmlns="http://www.w3.org/2000/svg">
<path fill-rule="evenodd" clip-rule="evenodd" d="M16 32C24.8366 32 32 24.8366 32 16C32 7.16344 24.8366 0 16 0C7.16344 0 0 7.16344 0 16C0 24.8366 7.16344 32 16 32Z" fill="#7F4DA0"/>
<path fill-rule="evenodd" clip-rule="evenodd" d="M16 4.44443C22.382 4.44443 27.5556 9.61803 27.5556 16C27.5556 22.3819 22.382 27.5555 16 27.5555C9.61806 27.5555 4.44446 22.3819 4.44446 16C4.44446 9.61803 9.61806 4.44443 16 4.44443ZM16.6921 9.15145C17.4778 9.24951 18.1128 9.4388 18.8095 9.77861C19.4947 10.1139 19.9332 10.4309 20.5134 11.0079C21.057 11.5529 21.3585 11.9657 21.6782 12.6066C22.1236 13.5006 22.3772 14.5634 22.4206 15.7333C22.4366 16.1324 22.4251 16.2214 22.3338 16.3354C22.1602 16.5567 21.7787 16.5201 21.6486 16.2716C21.6074 16.1894 21.596 16.1188 21.5823 15.7995C21.5594 15.3091 21.5252 14.9921 21.4567 14.6135C21.1872 13.1289 20.4745 11.9429 19.337 11.0922C18.3892 10.3807 17.4093 10.034 16.1257 9.95879C15.6917 9.9337 15.6163 9.91775 15.5181 9.84248C15.3353 9.69879 15.3262 9.36127 15.5021 9.20391C15.6094 9.10583 15.6848 9.09215 16.0571 9.10356C16.2513 9.1104 16.5368 9.1332 16.6921 9.15145ZM11.4707 9.39776C11.5506 9.42512 11.674 9.48897 11.7448 9.53459C12.1787 9.82196 13.387 11.3659 13.7822 12.1368C14.0083 12.5769 14.0837 12.9031 14.0129 13.1448C13.9398 13.4048 13.8187 13.5417 13.2774 13.9773C13.0604 14.1528 12.8571 14.333 12.8252 14.3809C12.7429 14.4995 12.6767 14.7321 12.6767 14.8963C12.679 15.2772 12.9257 15.9682 13.25 16.4996C13.5012 16.9124 13.9512 17.4415 14.3966 17.8475C14.9196 18.3264 15.381 18.6525 15.9018 18.9103C16.571 19.2432 16.9799 19.3276 17.2791 19.1885C17.3545 19.1543 17.4344 19.1087 17.4596 19.0882C17.4824 19.0676 17.6583 18.8532 17.8501 18.6161C18.2201 18.1508 18.3047 18.0755 18.5582 17.9889C18.8803 17.8794 19.2092 17.909 19.5403 18.0778C19.7916 18.2078 20.3398 18.5476 20.6938 18.7939C21.1597 19.1201 22.1556 19.932 22.2904 20.0939C22.5279 20.3858 22.5691 20.7598 22.4091 21.1727C22.2401 21.6082 21.5823 22.4247 21.1232 22.7736C20.7075 23.0884 20.4129 23.2092 20.0246 23.2275C19.7048 23.2434 19.5723 23.2161 19.1635 23.0473C15.9566 21.7268 13.3962 19.7564 11.3633 17.0493C10.3012 15.6353 9.49267 14.1688 8.9399 12.6477C8.61787 11.7605 8.60189 11.3751 8.86681 10.9212C8.98104 10.7297 9.46755 10.2553 9.82157 9.99074C10.4109 9.55285 10.6827 9.39091 10.8997 9.34531C11.0481 9.31338 11.3062 9.33846 11.4707 9.39776ZM16.8497 10.8049C18.2362 11.0079 19.3097 11.651 20.0132 12.6955C20.4083 13.2839 20.655 13.975 20.7395 14.7162C20.7692 14.9876 20.7692 15.4825 20.7372 15.5646C20.7075 15.6421 20.6116 15.747 20.5293 15.7903C20.4403 15.836 20.2507 15.8314 20.1456 15.7767C19.9697 15.6877 19.9172 15.5463 19.9172 15.1632C19.9172 14.5725 19.7642 13.9499 19.4993 13.4664C19.1977 12.9145 18.7592 12.4584 18.2247 12.1413C17.7656 11.8677 17.0873 11.6647 16.4683 11.6145C16.2444 11.5963 16.1211 11.5507 16.0366 11.4526C15.9064 11.3043 15.8927 11.1037 16.0023 10.9372C16.1211 10.7524 16.3038 10.7228 16.8497 10.8049ZM17.3362 12.5268C17.7862 12.6226 18.1311 12.7936 18.4257 13.0696C18.8049 13.4276 19.0127 13.8609 19.1041 14.4835C19.1658 14.8895 19.1406 15.0491 18.9967 15.1814C18.862 15.3046 18.613 15.3091 18.4623 15.1928C18.3526 15.1107 18.3184 15.024 18.2932 14.7892C18.2636 14.4767 18.2087 14.2578 18.1151 14.0548C17.9141 13.6237 17.5601 13.4002 16.9616 13.3273C16.6807 13.293 16.5962 13.2611 16.5048 13.1539C16.3381 12.9555 16.402 12.634 16.6327 12.5154C16.7195 12.472 16.7561 12.4675 16.9479 12.4789C17.0667 12.4857 17.2426 12.5062 17.3362 12.5268Z" fill="white"/>
</svg>
