<svg width="32" height="32" viewBox="0 0 32 32" fill="none" xmlns="http://www.w3.org/2000/svg">
<path d="M16 32C7.1648 32 0 24.8352 0 16C0 7.1648 7.1648 0 16 0C24.8352 0 32 7.1648 32 16C32 24.8352 24.8352 32 16 32Z" fill="#25D366"/>
<path fill-rule="evenodd" clip-rule="evenodd" d="M23.4848 8.55038C21.5008 6.56318 18.8576 5.46878 16.0448 5.46558C10.2496 5.46558 5.5296 10.1824 5.5296 15.9808C5.5296 17.8336 6.0128 19.6448 6.9344 21.2384L5.4432 26.688L11.0176 25.2256C12.5536 26.064 14.2816 26.5056 16.0416 26.5056H16.0448C21.84 26.5056 26.5568 21.7888 26.56 15.9904C26.5632 13.1808 25.472 10.5376 23.4848 8.55038ZM16.048 24.7296H16.0448C14.4768 24.7296 12.9376 24.3072 11.5968 23.5104L11.2768 23.3216L7.968 24.1888L8.8512 20.9632L8.6432 20.6336C7.7696 19.2416 7.3056 17.6352 7.3056 15.9808C7.3088 11.1616 11.2288 7.24158 16.0512 7.24158C18.3872 7.24158 20.5792 8.15358 22.2304 9.80478C23.8816 11.456 24.7904 13.6544 24.7872 15.9872C24.7872 20.8096 20.864 24.7296 16.048 24.7296ZM20.8416 18.1824C20.5792 18.0512 19.2864 17.4144 19.0464 17.328C18.8064 17.2416 18.6304 17.1968 18.4544 17.4592C18.2784 17.7216 17.776 18.3136 17.6224 18.4896C17.4688 18.6656 17.3152 18.688 17.0528 18.5568C16.7904 18.4256 15.9424 18.1472 14.9408 17.2512C14.16 16.5536 13.632 15.6928 13.4784 15.4304C13.3248 15.168 13.4624 15.024 13.5936 14.8928C13.712 14.7744 13.856 14.5856 13.9872 14.432C14.1184 14.2784 14.1632 14.1696 14.2496 13.9936C14.336 13.8176 14.2944 13.664 14.2272 13.5328C14.16 13.4016 13.6352 12.1088 13.4176 11.5808C13.2032 11.0688 12.9888 11.1392 12.8256 11.1296C12.672 11.1232 12.496 11.12 12.3232 11.12C12.1472 11.12 11.8624 11.1872 11.6224 11.4496C11.3824 11.712 10.704 12.3488 10.704 13.6416C10.704 14.9344 11.6448 16.1856 11.776 16.3584C11.9072 16.5344 13.6288 19.1872 16.2656 20.3264C16.8928 20.5984 17.3824 20.7584 17.7632 20.88C18.3936 21.0816 18.9664 21.0528 19.4176 20.9856C19.9232 20.9088 20.9728 20.3488 21.1904 19.7376C21.408 19.1232 21.408 18.5984 21.344 18.4896C21.28 18.3808 21.104 18.3168 20.8416 18.1824Z" fill="white"/>
</svg>
